<svg width="138" height="37" viewBox="0 0 138 37" fill="none" xmlns="http://www.w3.org/2000/svg">
<path d="M21.3555 7.62315V30H17.1773V20.2198H6.66973V30H2.49148V7.62315H6.66973V17.2486H17.1773V7.62315H21.3555ZM39.1128 14.1226V30H36.7761C36.2706 30 35.9508 29.7679 35.8166 29.3036L35.5536 28.0347C34.9036 28.6949 34.1866 29.2314 33.4025 29.6441C32.6185 30.0464 31.6951 30.2476 30.6325 30.2476C29.7659 30.2476 28.9973 30.1032 28.3267 29.8143C27.6665 29.5151 27.1094 29.0973 26.6554 28.5608C26.2015 28.0244 25.8559 27.3899 25.6186 26.6574C25.3917 25.9146 25.2782 25.0996 25.2782 24.2123V14.1226H29.1005V24.2123C29.1005 25.1821 29.3223 25.9352 29.7659 26.4717C30.2199 26.9978 30.8956 27.2609 31.7931 27.2609C32.4534 27.2609 33.0724 27.1165 33.6501 26.8276C34.2279 26.5284 34.7747 26.1209 35.2905 25.6051V14.1226H39.1128ZM46.4775 16.0725C46.7973 15.7527 47.1326 15.4587 47.4833 15.1904C47.8444 14.9119 48.221 14.6797 48.613 14.494C49.0154 14.298 49.4435 14.1484 49.8974 14.0453C50.3514 13.9318 50.8466 13.875 51.383 13.875C52.2496 13.875 53.0182 14.0246 53.6888 14.3238C54.3594 14.6127 54.9165 15.0254 55.3601 15.5618C55.8141 16.088 56.1545 16.7224 56.3815 17.4652C56.6188 18.1977 56.7374 19.0076 56.7374 19.8948V30H52.9151V19.8948C52.9151 18.9251 52.6933 18.1771 52.2496 17.6509C51.806 17.1145 51.1303 16.8462 50.2224 16.8462C49.5622 16.8462 48.9432 16.9958 48.3654 17.295C47.7877 17.5942 47.2409 18.0017 46.7251 18.5175V30H42.9027V14.1226H45.2395C45.7347 14.1226 46.0596 14.3548 46.2144 14.819L46.4775 16.0725ZM66.1757 21.6744C66.6503 21.6744 67.0629 21.6125 67.4137 21.4887C67.7645 21.3546 68.0533 21.1741 68.2803 20.9471C68.5176 20.7202 68.693 20.4468 68.8064 20.1269C68.9302 19.8071 68.9921 19.4564 68.9921 19.0746C68.9921 18.2906 68.7549 17.6716 68.2803 17.2176C67.816 16.7534 67.1145 16.5213 66.1757 16.5213C65.2369 16.5213 64.5302 16.7534 64.0556 17.2176C63.5914 17.6716 63.3592 18.2906 63.3592 19.0746C63.3592 19.446 63.416 19.7917 63.5295 20.1115C63.6533 20.4313 63.8287 20.7098 64.0556 20.9471C64.2929 21.1741 64.5869 21.3546 64.9377 21.4887C65.2988 21.6125 65.7114 21.6744 66.1757 21.6744ZM70.4932 30.7119C70.4932 30.4024 70.4004 30.1496 70.2147 29.9536C70.029 29.7576 69.7762 29.608 69.4564 29.5048C69.1366 29.3913 68.76 29.3088 68.3267 29.2572C67.9037 29.2056 67.4498 29.1695 66.9649 29.1489C66.4904 29.1179 65.9952 29.0921 65.4793 29.0715C64.9738 29.0509 64.4786 29.0096 63.9937 28.9477C63.5707 29.185 63.2251 29.4635 62.9569 29.7833C62.699 30.1032 62.57 30.4746 62.57 30.8976C62.57 31.1761 62.6371 31.434 62.7712 31.6713C62.9156 31.9189 63.1374 32.1304 63.4366 32.3058C63.7461 32.4812 64.1433 32.6153 64.6282 32.7081C65.1131 32.8113 65.7063 32.8629 66.4078 32.8629C67.1197 32.8629 67.7335 32.8061 68.2493 32.6927C68.7652 32.5895 69.1882 32.4399 69.5183 32.2439C69.8587 32.0582 70.1063 31.8312 70.2611 31.563C70.4158 31.3051 70.4932 31.0214 70.4932 30.7119ZM74.3001 14.6643V16.088C74.3001 16.5419 74.0267 16.8205 73.4799 16.9236L72.0562 17.1867C72.2728 17.7335 72.3812 18.3318 72.3812 18.9818C72.3812 19.7659 72.2213 20.4777 71.9014 21.1173C71.5919 21.7467 71.1586 22.2831 70.6015 22.7267C70.0444 23.1704 69.3842 23.516 68.6207 23.7636C67.8676 24.0009 67.0526 24.1195 66.1757 24.1195C65.8662 24.1195 65.567 24.104 65.2781 24.0731C64.9893 24.0421 64.7056 24.0009 64.427 23.9493C63.9318 24.2485 63.6842 24.5837 63.6842 24.9551C63.6842 25.275 63.8287 25.5122 64.1175 25.667C64.4167 25.8114 64.8087 25.9146 65.2936 25.9765C65.7785 26.0384 66.3304 26.0797 66.9494 26.1003C67.5684 26.1106 68.2029 26.1416 68.8529 26.1931C69.5028 26.2447 70.1373 26.3376 70.7563 26.4717C71.3753 26.5955 71.9272 26.7967 72.4121 27.0752C72.897 27.3538 73.2839 27.7355 73.5727 28.2204C73.8719 28.6949 74.0215 29.3088 74.0215 30.0619C74.0215 30.7634 73.8461 31.4443 73.4954 32.1046C73.1549 32.7649 72.6546 33.3529 71.9943 33.8688C71.3443 34.3846 70.5396 34.7973 69.5802 35.1068C68.6311 35.4266 67.5478 35.5865 66.3304 35.5865C65.1337 35.5865 64.0917 35.4678 63.2045 35.2306C62.3173 35.0036 61.5796 34.6941 60.9916 34.3021C60.4035 33.9203 59.9651 33.4767 59.6762 32.9712C59.3873 32.4657 59.2429 31.9395 59.2429 31.3928C59.2429 30.65 59.4647 30.031 59.9083 29.5357C60.3623 29.0302 60.9813 28.6279 61.7653 28.3287C61.3423 28.112 61.007 27.8232 60.7594 27.4621C60.5118 27.101 60.388 26.6264 60.388 26.0384C60.388 25.8011 60.4293 25.5587 60.5118 25.3111C60.6047 25.0532 60.7337 24.8004 60.8987 24.5528C61.0741 24.3052 61.2908 24.0731 61.5487 23.8564C61.8066 23.6295 62.1109 23.4283 62.4617 23.2529C61.657 22.8196 61.0225 22.2419 60.5583 21.5197C60.1043 20.7975 59.8774 19.9516 59.8774 18.9818C59.8774 18.1977 60.0321 17.491 60.3416 16.8617C60.6614 16.2221 61.0999 15.6805 61.657 15.2368C62.2244 14.7829 62.8898 14.4373 63.6533 14.2C64.427 13.9627 65.2678 13.8441 66.1757 13.8441C66.8566 13.8441 67.4962 13.9163 68.0946 14.0607C68.693 14.1949 69.2397 14.396 69.7349 14.6643H74.3001ZM80.3298 16.8772C80.825 15.9281 81.413 15.1853 82.0939 14.6488C82.7748 14.102 83.5795 13.8286 84.508 13.8286C85.2405 13.8286 85.8285 13.9885 86.2722 14.3083L86.0246 17.1712C85.973 17.3569 85.8956 17.491 85.7924 17.5736C85.6996 17.6458 85.5706 17.6819 85.4056 17.6819C85.2508 17.6819 85.0187 17.6561 84.7092 17.6045C84.41 17.5529 84.116 17.5271 83.8271 17.5271C83.4041 17.5271 83.0276 17.589 82.6974 17.7128C82.3673 17.8366 82.0681 18.0172 81.7999 18.2545C81.542 18.4814 81.3098 18.76 81.1035 19.0901C80.9075 19.4203 80.7218 19.7968 80.5464 20.2198V30H76.7241V14.1226H78.968C79.36 14.1226 79.6334 14.1949 79.7881 14.3393C79.9429 14.4734 80.0461 14.721 80.0976 15.0821L80.3298 16.8772ZM102.693 14.1226L94.0421 34.364C93.9286 34.6322 93.779 34.8334 93.5933 34.9675C93.4179 35.1119 93.1445 35.1841 92.7731 35.1841H89.9257L92.8969 28.8084L86.4748 14.1226H89.8329C90.132 14.1226 90.3642 14.1949 90.5292 14.3393C90.7046 14.4837 90.8336 14.6488 90.9161 14.8345L94.2897 23.0672C94.4031 23.3457 94.496 23.6243 94.5682 23.9028C94.6507 24.1814 94.7281 24.4651 94.8003 24.754C94.8932 24.4651 94.986 24.1814 95.0789 23.9028C95.1717 23.614 95.2749 23.3303 95.3884 23.0517L98.5762 14.8345C98.6588 14.6282 98.7929 14.4579 98.9786 14.3238C99.1746 14.1897 99.3913 14.1226 99.6285 14.1226H102.693Z" fill="white"/>
<path d="M104.034 27.8954C104.034 27.5756 104.091 27.2712 104.204 26.9824C104.328 26.6935 104.493 26.4459 104.699 26.2396C104.906 26.0332 105.153 25.8682 105.442 25.7444C105.731 25.6206 106.041 25.5587 106.371 25.5587C106.701 25.5587 107.005 25.6206 107.284 25.7444C107.573 25.8682 107.82 26.0332 108.027 26.2396C108.243 26.4459 108.413 26.6935 108.537 26.9824C108.661 27.2712 108.723 27.5756 108.723 27.8954C108.723 28.2255 108.661 28.535 108.537 28.8239C108.413 29.1024 108.243 29.3449 108.027 29.5512C107.82 29.7576 107.573 29.9175 107.284 30.031C107.005 30.1548 106.701 30.2167 106.371 30.2167C106.041 30.2167 105.731 30.1548 105.442 30.031C105.153 29.9175 104.906 29.7576 104.699 29.5512C104.493 29.3449 104.328 29.1024 104.204 28.8239C104.091 28.535 104.034 28.2255 104.034 27.8954Z" fill="#1F98F0"/>
</svg>
